<svg width="186" height="72" viewBox="0 0 186 72" fill="none" xmlns="http://www.w3.org/2000/svg">
<g clip-path="url(#clip0_18_207)">
<g filter="url(#filter0_d_18_207)">
<path d="M34 55.6299C34 55.6299 -27 15.6299 58 3.6299C143 -8.3701 181 24.6299 181 24.6299C181 24.6299 203 47.6299 135 64.6299C67 81.6299 15 55.6299 15 55.6299C15 55.6299 -12 38.6299 8.99997 24.6299C30 10.6299 73 11.6299 73 11.6299L184.4 13.6199" stroke="#D41C1C" stroke-width="2" stroke-miterlimit="10" shape-rendering="crispEdges"/>
</g>
<path d="M81.3715 31.07C82.1515 31.07 82.8615 31.16 83.5015 31.34C84.1615 31.5 84.7015 31.71 85.1215 31.97C85.6415 32.29 86.0415 32.69 86.3215 33.17C86.6215 33.63 86.7715 34.17 86.7715 34.79C86.7715 35.49 86.5515 36.07 86.1115 36.53C85.6715 36.97 85.1015 37.19 84.4015 37.19C83.7015 37.19 83.1415 36.99 82.7215 36.59C82.3015 36.19 82.0915 35.65 82.0915 34.97C82.0915 34.33 82.2915 33.8 82.6915 33.38C83.0915 32.94 83.5515 32.65 84.0715 32.51C83.9115 32.31 83.6715 32.14 83.3515 32C83.0315 31.86 82.6715 31.79 82.2715 31.79C81.6515 31.79 81.1015 31.97 80.6215 32.33C80.1615 32.69 79.7715 33.19 79.4515 33.83C79.1315 34.47 78.8815 35.22 78.7015 36.08C78.5415 36.94 78.4615 37.88 78.4615 38.9C78.4615 40.44 78.6515 41.65 79.0315 42.53C79.4315 43.41 79.9315 44.03 80.5315 44.39C81.1515 44.75 81.7915 44.93 82.4515 44.93C82.8315 44.93 83.2415 44.87 83.6815 44.75C84.1415 44.63 84.6015 44.39 85.0615 44.03C85.5415 43.67 85.9815 43.16 86.3815 42.5L86.8915 42.68C86.6715 43.42 86.3115 44.16 85.8115 44.9C85.3115 45.64 84.6615 46.25 83.8615 46.73C83.0615 47.19 82.0815 47.42 80.9215 47.42C79.6215 47.42 78.4415 47.14 77.3815 46.58C76.3415 46 75.5015 45.12 74.8615 43.94C74.2415 42.74 73.9315 41.2 73.9315 39.32C73.9315 37.52 74.2515 36.01 74.8915 34.79C75.5515 33.55 76.4415 32.62 77.5615 32C78.6815 31.38 79.9515 31.07 81.3715 31.07ZM94.2143 26.57V31.49H97.7543V32.09H94.2143V44.21C94.2143 44.81 94.3243 45.24 94.5443 45.5C94.7643 45.74 95.0943 45.86 95.5343 45.86C95.8943 45.86 96.2543 45.73 96.6143 45.47C96.9743 45.19 97.2943 44.72 97.5743 44.06L98.0843 44.33C97.7643 45.23 97.2743 45.97 96.6143 46.55C95.9743 47.13 95.0943 47.42 93.9743 47.42C93.3143 47.42 92.7343 47.33 92.2343 47.15C91.7343 46.99 91.3143 46.74 90.9743 46.4C90.5343 45.96 90.2443 45.42 90.1043 44.78C89.9643 44.12 89.8943 43.27 89.8943 42.23V32.09H87.3743V31.49H89.8943V27.53C90.7343 27.53 91.5043 27.46 92.2043 27.32C92.9243 27.16 93.5943 26.91 94.2143 26.57ZM102.481 47.21C101.581 47.21 100.831 47.04 100.231 46.7C99.6312 46.36 99.1912 45.91 98.9112 45.35C98.6312 44.77 98.4912 44.14 98.4912 43.46C98.4912 42.6 98.6812 41.9 99.0612 41.36C99.4612 40.82 99.9712 40.38 100.591 40.04C101.211 39.7 101.861 39.42 102.541 39.2C103.241 38.98 103.901 38.77 104.521 38.57C105.161 38.35 105.671 38.1 106.051 37.82C106.451 37.52 106.651 37.14 106.651 36.68V34.34C106.651 33.82 106.561 33.36 106.381 32.96C106.221 32.54 105.961 32.22 105.601 32C105.261 31.78 104.811 31.67 104.251 31.67C103.851 31.67 103.451 31.73 103.051 31.85C102.651 31.95 102.321 32.13 102.061 32.39C102.621 32.59 103.051 32.9 103.351 33.32C103.671 33.72 103.831 34.18 103.831 34.7C103.831 35.38 103.591 35.92 103.111 36.32C102.651 36.72 102.101 36.92 101.461 36.92C100.741 36.92 100.191 36.7 99.8112 36.26C99.4512 35.8 99.2712 35.25 99.2712 34.61C99.2712 34.03 99.4112 33.55 99.6912 33.17C99.9912 32.79 100.401 32.43 100.921 32.09C101.481 31.77 102.151 31.52 102.931 31.34C103.731 31.16 104.591 31.07 105.511 31.07C106.431 31.07 107.261 31.17 108.001 31.37C108.741 31.55 109.361 31.89 109.861 32.39C110.321 32.85 110.621 33.42 110.761 34.1C110.901 34.76 110.971 35.6 110.971 36.62V44.78C110.971 45.28 111.021 45.63 111.121 45.83C111.221 46.01 111.391 46.1 111.631 46.1C111.811 46.1 111.981 46.05 112.141 45.95C112.321 45.85 112.511 45.73 112.711 45.59L113.011 46.1C112.591 46.46 112.101 46.74 111.541 46.94C111.001 47.12 110.391 47.21 109.711 47.21C108.971 47.21 108.381 47.11 107.941 46.91C107.501 46.69 107.181 46.4 106.981 46.04C106.801 45.68 106.711 45.26 106.711 44.78C106.231 45.54 105.651 46.14 104.971 46.58C104.291 47 103.461 47.21 102.481 47.21ZM104.611 45.29C105.011 45.29 105.371 45.2 105.691 45.02C106.031 44.82 106.351 44.5 106.651 44.06V37.91C106.471 38.21 106.221 38.48 105.901 38.72C105.581 38.96 105.241 39.21 104.881 39.47C104.521 39.71 104.171 39.98 103.831 40.28C103.511 40.58 103.251 40.95 103.051 41.39C102.851 41.83 102.751 42.36 102.751 42.98C102.751 43.76 102.921 44.34 103.261 44.72C103.601 45.1 104.051 45.29 104.611 45.29Z" fill="black"/>
</g>
<defs>
<filter id="filter0_d_18_207" x="-3.99695" y="0.00268555" width="193.392" height="79.3938" filterUnits="userSpaceOnUse" color-interpolation-filters="sRGB">
<feFlood flood-opacity="0" result="BackgroundImageFix"/>
<feColorMatrix in="SourceAlpha" type="matrix" values="0 0 0 0 0 0 0 0 0 0 0 0 0 0 0 0 0 0 127 0" result="hardAlpha"/>
<feOffset dy="4"/>
<feGaussianBlur stdDeviation="2"/>
<feComposite in2="hardAlpha" operator="out"/>
<feColorMatrix type="matrix" values="0 0 0 0 0 0 0 0 0 0 0 0 0 0 0 0 0 0 0.25 0"/>
<feBlend mode="normal" in2="BackgroundImageFix" result="effect1_dropShadow_18_207"/>
<feBlend mode="normal" in="SourceGraphic" in2="effect1_dropShadow_18_207" result="shape"/>
</filter>
<clipPath id="clip0_18_207">
<rect width="185.39" height="71.39" fill="white"/>
</clipPath>
</defs>
</svg>
