<svg width="110" height="30" viewBox="0 0 110 30" fill="none" xmlns="http://www.w3.org/2000/svg">
<path d="M1.5242 1.99244C30.9879 2.71139 60.4526 3.65901 89.9443 3.37558C95.4664 3.32251 112.02 2.08556 106.514 2.83509C99.478 3.79278 92.6108 5.07692 85.491 5.13645C66.8605 5.29222 47.9855 7.74121 29.4139 6.83233C26.5218 6.69079 23.6298 6.54926 20.7377 6.40772C20.0779 6.37543 14.6761 5.74173 18.5083 6.5882C36.5027 10.5628 54.4028 13.2678 72.6884 14.1626C77.8696 14.4162 83.0507 14.6698 88.2318 14.9233C96.5082 15.3284 71.7338 13.2615 63.4827 12.4573C54.5677 11.5883 45.6423 11.1015 36.7022 10.664C32.8256 10.4743 40.9977 11.6988 41.3117 11.7583C51.6236 13.7142 62.1494 13.7569 72.419 15.8869C74.6268 16.3449 76.8819 16.7029 72.8652 17.3567C65.612 18.5372 58.345 19.457 51.0555 19.8609C43.4196 20.2839 20.5231 20.2972 28.1446 20.6702C39.1444 21.2085 50.1606 21.5764 61.1513 22.2855C73.3254 23.0709 49.5854 25.2761 49.3462 26.0515C49.2633 26.3205 63.4878 25.7579 51.5505 27.8969" stroke="#D41C1C" stroke-width="3" stroke-linecap="round"/>
</svg>
